<!-- From: https://gossipsweb.net/images/hand.svg -->
<svg version="1.1" id="Layer_1" xmlns="http://www.w3.org/2000/svg" xmlns:xlink="http://www.w3.org/1999/xlink" x="0px" y="0px" width="354px" height="356px" viewBox="0 0 354 356" style="enable-background:new 0 0 354 356;" xml:space="preserve">
<style type="text/css">
	.st0{fill:none;stroke:#000000;stroke-width:14.0244;}
</style>
<path class="st0" d="M246.3,179c-6.4-4.1-9.5-13.3-9.1-27.6c0.4-13.9,4-30,8.1-44.2l0,0c4.1-14.7,7.9-33.1,9.3-48.4  c0.7-7.6,0.8-14.8-0.1-20.5c-0.4-2.8-1.2-5.8-2.5-8.3c-1.4-2.6-3.7-5.3-7.5-6.3v0c-4-1.1-8.3-1-12.2,1.4c-3.6,2.2-6,5.8-7.7,9.6  c-3.4,7.3-6.2,19-9.8,34.5v0c-3.6,15.7-8.1,30.9-13.4,42.1c-2.6,5.6-5.3,9.8-7.8,12.5c-2.5,2.7-4.3,3.2-5.2,3.2  c-1.2,0-1.8-0.3-2.5-1.4c-1.1-1.6-2.2-4.4-3.1-9.1c-0.9-4.6-1.6-10.1-2.3-16.5c-0.1-0.5-0.1-1-0.2-1.6c-0.7-5.9-1.4-12.5-2.4-19.3v0  c-1.1-7-2-14.5-2.8-21.9c-0.1-0.5-0.1-1.1-0.2-1.6c-0.8-6.8-1.5-13.5-2.4-19.4c-0.9-6.4-2.1-12.4-3.8-17c-0.8-2.3-1.9-4.7-3.5-6.6  c-1.6-2-4.1-4.1-7.7-4.5l-0.8,7l0.8-7c-1.9-0.2-4.1-0.1-6.3,0.8c-2.2,1-3.9,2.5-5.1,4.3c-2.1,3.2-2.7,7.3-3,10.8  c-0.3,3.8-0.4,8.6-0.4,13.9c0,0.7,0,1.4,0,2.1c0,5,0,10.6-0.2,17c-0.2,5.5-0.1,11.3-0.1,17.2c0,10.8,0,21.7-0.9,31.5  c-0.7,7.5-2,13.2-3.8,17c-1.7,3.6-3.3,4.2-4.7,4.3c-5.1,0.2-9.4-2.9-14.3-13.4c-3.2-6.9-5.9-15.3-8.9-24.8c-1.6-5-3.2-10.2-5.1-15.7  c-1-3-2-5.9-2.9-8.7c-1.4-4-2.6-7.7-3.7-10.8c-1.9-5.3-3.7-9.9-5.6-13.4c-1.8-3.3-4.5-7.1-8.7-8.7c-4.7-1.8-9.1-0.4-12.6,1.4  c-6.1,3.3-7.4,9.9-7.5,14.8c-0.1,5.2,1.1,11.3,2.6,17.4c1.9,7.5,4.8,16.3,7.6,24.6c1.6,4.9,3.2,9.6,4.5,13.7l0.3,1.1  c3.6,11.9,7.4,24.4,8.5,34.5c0.6,5.2,0.3,9.1-0.6,11.5c-0.7,2.1-1.7,3-3.5,3.5c-2.3,0.7-4.1,0.3-5.9-0.7c-2.1-1.2-4.5-3.5-7.2-7.2  c-2.5-3.3-4.9-7.1-7.5-11.3c-0.3-0.5-0.6-0.9-0.9-1.4c-3-4.7-6.2-9.8-10-14.4c-6.8-8.5-13.7-17-19.6-22c-2.7-2.4-6.4-5.1-10.5-5.6  c-2.4-0.3-5,0-7.4,1.6c-2.3,1.5-3.6,3.6-4.5,5.6l6.5,2.7l-6.5-2.7c-2,4.7-1.2,9.5,0.1,13.5c1.3,4,3.5,8.2,5.9,12.3  c1.9,3.2,3.8,6.3,5.8,9.5c3.4,5.4,6.8,10.9,9.9,16.9l6.3-3.2l-6.3,3.2c4.8,9.4,11.3,23.3,16.9,38.1c5.6,14.9,10.1,30.2,11.3,42.7  c0.1,1.6,0.3,3.2,0.4,5c1.1,12.8,2.5,29.4,6.4,45.3c4.4,17.9,12.2,36.3,27.8,47c28.7,19.7,55.4,20,77.4,18.8  c32.7-1.9,59.4-9.2,80.6-32.3c10.7-11.6,20.7-32.7,29.2-52.9c3.2-7.6,6.3-15.1,9.2-22.2c5-12.3,9.5-23.3,13.4-31.1  c5.7-11.2,16.1-21.7,25.5-30.7c0.7-0.6,1.3-1.3,2-1.9c3.8-3.6,7.4-7,9.9-9.9c1.5-1.7,3-3.6,4-5.7c0.9-2,2.2-6-0.5-9.8 M246.3,179  c3.9,2.5,6.4,2.8,8.3,2.6c2.1-0.3,4.6-1.4,8.2-4c2.3-1.7,4.6-3.6,7.3-5.8c1.6-1.3,3.4-2.8,5.4-4.4c5.1-4.1,11.1-8.5,18.4-12.6   M293.9,154.8 M246.3,179 M293.9,154.8c14.1-7.9,24.6-11.4,32.7-11.7 M326.5,143.1 M293.9,154.8 M326.5,143.1  c8.7-0.3,14.4,3.1,17.9,8"/>
</svg>